<?xml version="1.0" standalone="no"?>
<!DOCTYPE svg PUBLIC "-//W3C//DTD SVG 20010904//EN"
 "http://www.w3.org/TR/2001/REC-SVG-20010904/DTD/svg10.dtd">
<svg version="1.0" xmlns="http://www.w3.org/2000/svg"
 width="260.000000pt" height="260.000000pt" viewBox="0 0 260.000000 260.000000"
 preserveAspectRatio="xMidYMid meet">
<metadata>
Created by potrace 1.11, written by Peter Selinger 2001-2013
</metadata>
<g transform="translate(0.000000,260.000000) scale(0.100000,-0.100000)"
fill="#000000" stroke="none">
<path d="M1161 2530 c-208 -29 -380 -94 -556 -208 -90 -59 -268 -237 -327
-327 -285 -438 -286 -967 -1 -1399 68 -102 240 -272 346 -341 441 -286 1014
-266 1433 49 87 65 226 213 285 303 195 299 255 651 168 996 -58 229 -175 427
-353 595 -131 124 -256 201 -431 267 -151 56 -411 86 -564 65z m114 -80 c21
-8 26 -15 22 -31 -3 -12 -1 -29 6 -39 16 -26 -7 -50 -48 -50 -32 0 -32 1 -39
57 -8 71 4 84 59 63z m95 -33 l0 -31 28 34 c16 18 33 31 38 28 14 -9 2 -121
-13 -126 -9 -2 -13 9 -13 35 l0 38 -26 -32 c-39 -50 -54 -44 -48 20 3 28 8 58
10 65 7 23 24 2 24 -31z m-203 -23 c3 -21 10 -41 14 -44 4 -3 11 -18 14 -33 6
-21 4 -27 -9 -27 -9 0 -16 7 -16 15 0 17 -4 18 -49 9 -20 -4 -30 -12 -29 -22
2 -8 -2 -17 -8 -19 -13 -5 -25 42 -13 54 4 4 9 30 11 58 3 47 5 50 33 56 38 7
44 1 52 -47z m353 22 c0 -34 17 -41 24 -10 9 34 32 25 28 -12 l-3 -29 24 29
c28 34 48 20 24 -17 -8 -13 -12 -35 -9 -55 3 -25 1 -32 -12 -32 -10 0 -16 9
-16 24 0 35 -18 42 -26 11 -8 -33 -30 -26 -26 9 3 31 -8 34 -26 6 -12 -20 -42
-28 -42 -12 0 5 9 17 19 26 15 13 18 26 14 52 -4 27 -2 34 11 34 10 0 16 -9
16 -24z m-500 -11 c0 -9 -9 -15 -21 -15 -12 0 -19 -5 -16 -12 2 -7 14 -12 25
-10 25 4 30 -16 7 -24 -8 -4 -15 -12 -15 -20 0 -10 7 -13 25 -8 34 8 33 -13
-1 -26 -39 -15 -42 -13 -59 42 -19 66 -20 65 13 76 38 14 42 14 42 -3z m680
-26 c0 -6 -5 -19 -11 -31 -16 -29 -7 -30 33 -3 24 16 39 21 43 14 8 -11 -33
-119 -44 -119 -17 0 -19 15 -6 46 l14 33 -40 -26 c-53 -35 -63 -21 -34 45 22
47 45 69 45 41z m-771 -50 c11 -29 21 -56 21 -60 0 -18 -29 -8 -35 12 -10 30
-40 20 -40 -13 0 -45 -17 -36 -38 20 -15 41 -17 56 -8 65 9 9 13 6 18 -11 4
-17 12 -22 27 -20 21 4 23 9 11 41 -5 11 -2 17 8 17 8 0 24 -22 36 -51z m915
-51 l0 -47 29 25 c30 25 52 30 62 14 7 -11 -43 -110 -55 -110 -18 0 -18 16 1
47 24 39 12 44 -21 8 -38 -41 -53 -33 -46 23 l6 47 -17 -32 c-9 -18 -23 -33
-30 -33 -18 0 -17 5 14 62 35 63 58 62 57 -4z m-1106 -10 c16 -16 15 -43 -3
-58 -9 -8 -13 -21 -9 -36 10 -40 -14 -28 -46 23 -36 56 -36 57 -7 71 30 14 51
14 65 0z m807 -43 c164 -41 289 -112 419 -235 200 -190 298 -419 297 -693 -1
-177 -26 -287 -98 -432 -71 -141 -196 -283 -328 -372 -262 -176 -596 -209
-892 -89 -217 89 -408 273 -509 490 -65 143 -79 211 -79 401 0 147 3 180 23
249 50 172 142 326 266 444 88 83 139 119 244 172 197 98 435 122 657 65z
m-915 -3 c0 -4 -5 -13 -11 -19 -9 -9 -4 -22 20 -52 42 -53 21 -69 -23 -17 -22
27 -36 35 -48 31 -28 -11 -21 8 14 37 34 28 48 34 48 20z m1390 -12 c33 -18
42 -46 26 -79 -24 -46 -66 -54 -103 -19 -29 27 -29 39 3 77 27 33 44 37 74 21z
m-1456 -109 c22 -23 35 -44 31 -51 -5 -8 -12 -6 -26 6 -15 14 -21 15 -34 4
-14 -12 -14 -15 0 -30 16 -18 20 -40 7 -40 -4 0 -28 20 -52 45 -43 44 -48 71
-9 47 16 -10 24 -11 35 -1 13 10 13 14 -1 29 -42 47 2 39 49 -9z m1576 -1 c21
-21 24 -32 13 -43 -3 -4 -12 2 -20 13 -19 27 -39 25 -60 -6 -16 -25 -16 -27 7
-44 16 -12 19 -19 11 -25 -15 -8 -61 32 -61 53 0 19 55 72 74 72 9 0 25 -9 36
-20z m76 -85 c27 -35 27 -58 1 -36 -11 9 -22 5 -52 -19 -34 -27 -55 -31 -55
-11 0 5 16 19 35 32 28 19 34 29 30 47 -8 33 10 27 41 -13z m-1786 12 c0 -7
-5 -18 -11 -24 -8 -8 -7 -13 1 -18 8 -5 16 -1 22 9 13 23 31 10 18 -14 -14
-26 9 -39 27 -15 8 12 17 15 22 9 6 -5 0 -20 -15 -37 l-24 -28 -45 37 c-25 20
-45 38 -45 41 0 2 7 15 16 28 18 27 34 33 34 12z m1840 -92 c0 -9 -12 -21 -27
-28 -27 -12 -27 -12 16 -17 25 -3 46 -10 48 -17 5 -13 -86 -75 -99 -67 -14 9
-8 20 19 35 l26 14 -44 5 c-57 6 -56 23 1 60 52 33 60 35 60 15z m-1879 -20
c20 -13 39 -22 42 -19 8 8 47 -15 47 -28 0 -5 -9 -8 -20 -5 -11 3 -20 2 -20
-1 0 -4 -11 -20 -23 -36 l-24 -29 -46 32 c-26 18 -47 35 -47 40 0 20 15 18 46
-6 33 -25 64 -26 64 -1 0 7 -18 23 -40 36 -22 13 -38 27 -35 32 9 15 17 13 56
-15z m94 -1326 c4 -6 -2 -13 -14 -16 -11 -3 -23 -14 -26 -24 -8 -24 -25 -25
-25 -1 0 22 11 37 30 45 23 8 28 8 35 -4z m25 -34 c0 -8 -7 -15 -15 -15 -8 0
-19 -9 -25 -20 -6 -11 -15 -18 -20 -15 -14 9 2 46 24 55 30 13 36 12 36 -5z
m1613 -4 c25 -10 42 -47 27 -56 -5 -3 -14 3 -19 14 -6 11 -20 23 -31 26 -11 4
-18 11 -15 16 8 11 8 11 38 0z m-1518 -31 c9 -14 -37 -131 -50 -127 -5 2 -10
12 -10 23 0 31 -14 45 -41 38 -42 -11 -27 14 29 46 58 33 63 35 72 20z m1385
4 c0 -3 -5 -14 -10 -25 -11 -20 -60 -27 -60 -9 0 6 9 10 20 10 11 0 20 7 20
15 0 8 7 15 15 15 8 0 15 -3 15 -6z m126 -8 c9 -8 12 -46 5 -50 -5 -4 -12 3
-16 13 -3 11 -15 23 -26 26 -10 4 -17 11 -13 16 4 7 42 4 50 -5z m-63 -53 c23
-31 32 -51 26 -58 -6 -6 -18 1 -35 20 l-24 30 2 -44 c2 -25 -2 -46 -8 -48 -6
-2 -28 17 -49 43 -28 34 -35 48 -25 54 8 5 22 -2 37 -19 l24 -26 -6 38 c-12
71 10 75 58 10z m-1373 -11 c0 -4 -5 -13 -12 -20 -18 -18 0 -28 24 -13 32 20
47 -3 15 -24 -15 -9 -27 -29 -31 -50 -10 -49 -36 -37 -30 13 l5 37 -21 -24
c-14 -17 -24 -21 -31 -14 -7 7 0 25 22 57 29 41 59 60 59 38z m1259 -73 c17
-28 31 -52 31 -55 0 -13 -27 0 -45 22 l-21 27 4 -37 c2 -21 -1 -43 -8 -51 -11
-13 -18 -8 -47 35 -30 45 -36 70 -15 70 4 0 15 -12 24 -27 l17 -28 1 41 c0 71
16 72 59 3z m-1133 -13 c9 -23 -16 -128 -29 -123 -7 2 -12 10 -12 18 -1 29
-16 40 -46 34 -40 -9 -36 3 14 47 45 40 64 46 73 24z m994 -35 c0 -20 9 -36
27 -51 20 -15 24 -23 15 -32 -9 -9 -18 -6 -37 12 -28 26 -42 22 -26 -8 14 -27
14 -32 -3 -32 -12 0 -56 85 -56 109 0 18 17 12 33 -11 16 -23 16 -23 16 10 1
21 6 32 16 32 10 0 15 -10 15 -29z m-870 -16 l29 -15 -19 -42 c-10 -23 -16
-46 -14 -50 9 -15 -7 -48 -23 -48 -10 0 -13 6 -9 16 4 10 -4 19 -27 29 -28 12
-34 12 -43 -1 -16 -20 -24 -18 -24 6 0 11 12 30 26 43 14 12 32 34 40 50 17
31 24 33 64 12z m770 -14 c0 -5 -10 -11 -22 -13 -29 -4 -37 -48 -13 -68 14
-11 20 -11 37 -1 11 7 22 10 25 7 12 -11 -8 -36 -33 -42 -52 -13 -97 72 -58
110 17 17 64 22 64 7z m-655 -21 c32 -12 23 -32 -11 -24 -30 8 -31 -8 -1 -29
l22 -16 -27 0 c-33 -1 -38 -26 -7 -34 12 -3 18 -10 15 -15 -10 -17 -78 9 -71
26 3 8 10 34 16 58 12 46 21 51 64 34z m545 -9 c0 -5 -9 -11 -20 -14 -11 -3
-20 -10 -20 -16 0 -6 9 -11 20 -11 11 0 20 -4 20 -10 0 -5 -7 -10 -15 -10 -8
0 -15 -7 -15 -15 0 -9 9 -15 25 -15 28 0 34 -15 9 -24 -39 -15 -53 -7 -64 37
-6 23 -13 48 -15 55 -3 7 5 17 18 22 29 12 57 12 57 1z m-450 -44 c0 -43 15
-49 33 -12 11 24 23 35 38 35 21 0 21 -3 15 -62 -8 -70 -10 -73 -26 -63 -7 4
-9 22 -6 49 l6 41 -21 -42 c-28 -57 -46 -55 -55 5 l-8 47 -8 -42 c-13 -62 -37
-58 -30 5 7 66 18 85 42 72 11 -6 20 -21 20 -33z m344 1 c11 -64 11 -91 0 -95
-7 -2 -14 7 -18 21 -4 17 -11 23 -24 19 -25 -6 -52 22 -52 53 0 31 27 32 32 2
4 -32 40 -38 38 -6 -3 32 -1 38 10 38 5 0 12 -15 14 -32z m-192 -15 l3 -38 22
38 c12 20 26 37 32 37 11 0 25 -105 16 -120 -13 -20 -24 -9 -27 28 l-3 37 -23
-37 c-36 -59 -52 -50 -52 27 0 50 3 65 14 65 10 0 16 -13 18 -37z"/>
<path d="M1242 2419 c2 -6 8 -10 13 -10 5 0 11 4 13 10 2 6 -4 11 -13 11 -9 0
-15 -5 -13 -11z"/>
<path d="M1240 2364 c0 -9 7 -14 17 -12 25 5 28 28 4 28 -12 0 -21 -6 -21 -16z"/>
<path d="M1110 2376 c0 -39 2 -44 20 -39 19 5 20 19 4 71 -8 29 -24 9 -24 -32z"/>
<path d="M692 2253 c-10 -4 -10 -8 -1 -19 15 -18 29 -18 29 0 0 18 -11 25 -28
19z"/>
<path d="M1256 2110 c-63 -19 -44 16 -403 -755 -74 -159 -151 -324 -170 -365
-47 -99 -51 -137 -24 -194 39 -80 132 -106 213 -58 31 18 57 64 158 281 39 84
87 188 107 230 19 42 62 135 95 206 33 72 64 134 69 139 5 6 24 -24 48 -75 22
-46 107 -230 191 -409 83 -179 163 -337 177 -352 91 -95 253 -28 253 106 0 33
-55 160 -240 551 -29 61 -94 200 -145 310 -51 110 -107 229 -123 265 -52 112
-113 147 -206 120z"/>
<path d="M1236 1175 c-101 -53 -103 -210 -5 -261 42 -21 112 -20 151 3 96 56
92 211 -6 257 -43 20 -102 20 -140 1z"/>
<path d="M1963 2164 c-16 -25 -16 -27 2 -40 17 -13 22 -12 44 10 20 21 22 27
11 40 -18 23 -37 20 -57 -10z"/>
<path d="M551 481 c-10 -6 -10 -10 -1 -16 13 -8 24 -1 19 14 -3 6 -10 7 -18 2z"/>
<path d="M762 338 c-16 -16 -15 -28 3 -28 8 0 15 9 15 20 0 23 -2 24 -18 8z"/>
<path d="M879 269 c-18 -26 -19 -33 -8 -40 8 -5 16 -9 19 -9 6 0 30 60 30 73
0 17 -20 4 -41 -24z"/>
</g>
</svg>
